# xmcd
#
# Track frame offsets: 
#        150
#        14202
#        31715
#        46655
#        63937
#        78551
#        93305
#        102729
#        129069
#        140925
#        154398
#        171695
#        186809
#        204499
#        216678
#
# Disc length: 2929 seconds
#
# Revision: 0
# Processed by: cddbd v1.5.2PL0 Copyright (c) Steve Scherf et al.
# Submitted via: ExactAudioCopy v1.0b3
#
DISCID=e10b6f0f
DTITLE=Muddy Waters Blues Band - Mud In Your Ear
DYEAR=1969
DGENRE=Blues
TTITLE0=Digging My Potatoes
TTITLE1=Long Distance Call
TTITLE2=Mud In Your Ear
TTITLE3=Sad Day Uptown
TTITLE4=I'm So Glad
TTITLE5=Chicken Shack
TTITLE6=Excuse Me Baby
TTITLE7=Remember Me
TTITLE8=Evil
TTITLE9=Watch Dog
TTITLE10=Why'd You Do Me
TTITLE11=Love N' Trouble
TTITLE12=Looking For My Baby
TTITLE13=Coming Home Baby
TTITLE14=Mud In Your Ear
EXTD=
EXTT0=
EXTT1=
EXTT2=
EXTT3=
EXTT4=
EXTT5=
EXTT6=
EXTT7=
EXTT8=
EXTT9=
EXTT10=
EXTT11=
EXTT12=
EXTT13=
EXTT14=
PLAYORDER=
